<svg width="30" height="29" viewBox="0 0 30 29" fill="none" xmlns="http://www.w3.org/2000/svg">
<path fill-rule="evenodd" clip-rule="evenodd" d="M14.6218 8.9174C15.4325 8.86335 16.2611 9.00747 17.0178 9.31372C18.8012 10.0343 20.1163 11.7637 20.3325 13.6553C20.5486 15.2406 20.0082 16.9159 18.8913 18.0689C18.2247 18.7714 17.3781 19.2939 16.4413 19.5641C15.5586 19.8163 14.6218 19.8343 13.7211 19.6181C12.7663 19.402 11.8836 18.9156 11.181 18.231C10.3523 17.4384 9.79386 16.3755 9.59569 15.2406C9.43356 14.1777 9.55967 13.0788 10.01 12.106C10.5144 10.9711 11.4512 10.0163 12.5681 9.45784C13.2167 9.15159 13.9012 8.97144 14.6218 8.9174Z" fill="#E30617"/>
<path fill-rule="evenodd" clip-rule="evenodd" d="M19.2156 0C25.0163 0 29.2858 4.34155 29.2858 10.0882V23.6533H24.4218V10.7908C24.4218 8.55699 23.2509 7.2239 21.9358 6.17905C20.5847 5.09816 19.2156 4.88199 17.6123 4.88199L5.56042 4.86397V0H19.2156Z" fill="#14317A"/>
<path fill-rule="evenodd" clip-rule="evenodd" d="M0.714294 28.5712V4.88184H5.56025V23.7252H24.4217L24.4036 28.5712H0.714294Z" fill="#14317A"/>
</svg>
