<svg id="g578" xmlns="http://www.w3.org/2000/svg" width="20.417" height="12.542" viewBox="0 0 20.417 12.542">
  <rect id="rect124" width="20.417" height="12.542" fill="#006"/>
  <g id="g584">
    <path id="path146" d="M0,0V1.4l18.135,11.14h2.283v-1.4L2.283,0H0ZM20.417,0V1.4L2.283,12.542H0v-1.4L18.135,0Z" fill="#fff"/>
    <path id="path136" d="M8.507,0V12.542h3.4V0ZM0,4.181V8.361H20.417V4.181Z" fill="#fff"/>
    <path id="path141" d="M0,5.017V7.525H20.417V5.017ZM9.188,0V12.542H11.23V0Z" fill="#c00"/>
    <path id="path150" d="M0,12.542,6.806,8.361H8.328L1.522,12.542ZM0,0,6.806,4.181H5.284L0,.935V0ZM12.09,4.181,18.9,0h1.522L13.612,4.181Zm8.328,8.361L13.612,8.361h1.522l5.284,3.246Z" fill="#c00"/>
  </g>
</svg>
