<svg xmlns="http://www.w3.org/2000/svg" xmlns:xlink="http://www.w3.org/1999/xlink" width="19.754" height="12.554" viewBox="0 0 19.754 12.554">
  <defs>
    <clipPath id="clip-path">
      <path id="Path_5410" data-name="Path 5410" d="M-79.979,0h19.754V12.554H-79.979Z" fill="rgba(0,0,0,0.67)"/>
    </clipPath>
  </defs>
  <g id="Group_416" data-name="Group 416" transform="translate(79.979)" clip-path="url(#clip-path)">
    <path id="Path_5246" data-name="Path 5246" d="M-179.963,0h25.927V12.554h-25.927Z" transform="translate(96.897)" fill="#fff" fill-rule="evenodd"/>
    <path id="Path_5247" data-name="Path 5247" d="M-179.963,322.35h25.927v4.123h-25.927Z" transform="translate(96.897 -313.919)" fill="#da0000" fill-rule="evenodd"/>
    <g id="Group_391" data-name="Group 391" transform="translate(-78.136 8.605)">
      <path id="Path_5248" data-name="Path 5248" d="M-20.276,329.023h1.42v.083h-1.42Zm.212.414h.1v.08h-.1Zm1.212,0v.083h-.284v-.083Zm.153-.411h.1v.494h-.1Z" transform="translate(20.276 -329.023)" fill="#fff" fill-rule="evenodd"/>
      <path id="Path_5249" data-name="Path 5249" d="M17.654,337.552v.083h-.538v-.083Zm-1-.193h.1v.276h-.1Z" transform="translate(-15.513 -337.14)" fill="#fff" fill-rule="evenodd"/>
      <path id="Path_5250" data-name="Path 5250" d="M-18.132,329.023h.1v.494h-.1Zm-.244,0h.1v.494h-.1Zm-1.3.2v.083h-.518v-.083Zm1.137,0v.083h-.518v-.083Z" transform="translate(20.194 -329.023)" fill="#fff" fill-rule="evenodd"/>
      <path id="Path_5251" data-name="Path 5251" d="M16.653,337.358h.1v.276h-.1Z" transform="translate(-15.513 -337.14)" fill="#fff" fill-rule="evenodd"/>
      <path id="Path_5252" data-name="Path 5252" d="M16.653,337.358h.1v.276h-.1Z" transform="translate(-15.513 -337.14)" fill="#fff" fill-rule="evenodd"/>
      <path id="Path_5253" data-name="Path 5253" d="M-19.054,337.358h.1v.276h-.1Zm-1.137,0h.1v.276h-.1Zm.834,0h.1v.276h-.1Zm-.413,0h.1v.276h-.1Z" transform="translate(20.194 -337.14)" fill="#fff" fill-rule="evenodd"/>
      <path id="Path_5254" data-name="Path 5254" d="M-4.719,336.76v.083h-.438v-.083Zm.029-.215v.083h-.278v-.083Z" transform="translate(5.624 -336.349)" fill="#fff" fill-rule="evenodd"/>
    </g>
    <g id="Group_392" data-name="Group 392" transform="translate(-80.469 8.605)">
      <path id="Path_5255" data-name="Path 5255" d="M-95.839,329.023h1.42v.083h-1.42Zm.212.414h.1v.08h-.1Zm1.212,0v.083H-94.7v-.083Zm.153-.411h.1v.494h-.1Z" transform="translate(95.839 -329.023)" fill="#fff" fill-rule="evenodd"/>
      <path id="Path_5256" data-name="Path 5256" d="M-57.908,337.552v.083h-.538v-.083Zm-1-.193h.1v.276h-.1Z" transform="translate(60.05 -337.14)" fill="#fff" fill-rule="evenodd"/>
      <path id="Path_5257" data-name="Path 5257" d="M-93.695,329.023h.1v.494h-.1Zm-.244,0h.1v.494h-.1Zm-1.3.2v.083h-.518v-.083Zm1.137,0v.083h-.518v-.083Z" transform="translate(95.756 -329.023)" fill="#fff" fill-rule="evenodd"/>
      <path id="Path_5258" data-name="Path 5258" d="M-58.91,337.358h.1v.276h-.1Z" transform="translate(60.05 -337.14)" fill="#fff" fill-rule="evenodd"/>
      <path id="Path_5259" data-name="Path 5259" d="M-58.91,337.358h.1v.276h-.1Z" transform="translate(60.05 -337.14)" fill="#fff" fill-rule="evenodd"/>
      <path id="Path_5260" data-name="Path 5260" d="M-94.616,337.358h.1v.276h-.1Zm-1.137,0h.1v.276h-.1Zm.834,0h.1v.276h-.1Zm-.413,0h.1v.276h-.1Z" transform="translate(95.756 -337.14)" fill="#fff" fill-rule="evenodd"/>
      <path id="Path_5261" data-name="Path 5261" d="M-80.282,336.76v.083h-.438v-.083Zm.029-.215v.083h-.278v-.083Z" transform="translate(81.186 -336.349)" fill="#fff" fill-rule="evenodd"/>
    </g>
    <g id="Group_393" data-name="Group 393" transform="translate(-75.824 8.605)">
      <path id="Path_5262" data-name="Path 5262" d="M54.653,329.023h1.42v.083h-1.42Zm.212.414h.1v.08h-.1Zm1.212,0v.083h-.284v-.083Zm.153-.411h.1v.494h-.1Z" transform="translate(-54.653 -329.023)" fill="#fff" fill-rule="evenodd"/>
      <path id="Path_5263" data-name="Path 5263" d="M92.583,337.552v.083h-.538v-.083Zm-1-.193h.1v.276h-.1Z" transform="translate(-90.442 -337.14)" fill="#fff" fill-rule="evenodd"/>
      <path id="Path_5264" data-name="Path 5264" d="M56.8,329.023h.1v.494h-.1Zm-.244,0h.1v.494h-.1Zm-1.3.2v.083h-.518v-.083Zm1.137,0v.083h-.518v-.083Z" transform="translate(-54.736 -329.023)" fill="#fff" fill-rule="evenodd"/>
      <path id="Path_5265" data-name="Path 5265" d="M91.582,337.358h.1v.276h-.1Z" transform="translate(-90.442 -337.14)" fill="#fff" fill-rule="evenodd"/>
      <path id="Path_5266" data-name="Path 5266" d="M91.582,337.358h.1v.276h-.1Z" transform="translate(-90.442 -337.14)" fill="#fff" fill-rule="evenodd"/>
      <path id="Path_5267" data-name="Path 5267" d="M55.876,337.358h.1v.276h-.1Zm-1.137,0h.1v.276h-.1Zm.834,0h.1v.276h-.1Zm-.413,0h.1v.276h-.1Z" transform="translate(-54.736 -337.14)" fill="#fff" fill-rule="evenodd"/>
      <path id="Path_5268" data-name="Path 5268" d="M70.21,336.76v.083h-.438v-.083Zm.029-.215v.083h-.278v-.083Z" transform="translate(-69.305 -336.349)" fill="#fff" fill-rule="evenodd"/>
    </g>
    <g id="Group_394" data-name="Group 394" transform="translate(-59.492 8.605)">
      <path id="Path_5269" data-name="Path 5269" d="M583.764,329.023h1.42v.083h-1.42Zm.212.414h.1v.08h-.1Zm1.212,0v.083H584.9v-.083Zm.153-.411h.1v.494h-.1Z" transform="translate(-583.764 -329.023)" fill="#fff" fill-rule="evenodd"/>
      <path id="Path_5270" data-name="Path 5270" d="M621.7,337.552v.083h-.538v-.083Zm-1-.193h.1v.276h-.1Z" transform="translate(-619.554 -337.14)" fill="#fff" fill-rule="evenodd"/>
      <path id="Path_5271" data-name="Path 5271" d="M585.909,329.023h.1v.494h-.1Zm-.244,0h.1v.494h-.1Zm-1.3.2v.083h-.518v-.083Zm1.137,0v.083h-.518v-.083Z" transform="translate(-583.847 -329.023)" fill="#fff" fill-rule="evenodd"/>
      <path id="Path_5272" data-name="Path 5272" d="M620.693,337.358h.1v.276h-.1Z" transform="translate(-619.554 -337.14)" fill="#fff" fill-rule="evenodd"/>
      <path id="Path_5273" data-name="Path 5273" d="M620.693,337.358h.1v.276h-.1Z" transform="translate(-619.554 -337.14)" fill="#fff" fill-rule="evenodd"/>
      <path id="Path_5274" data-name="Path 5274" d="M584.987,337.358h.1v.276h-.1Zm-1.137,0h.1v.276h-.1Zm.834,0h.1v.276h-.1Zm-.413,0h.1v.276h-.1Z" transform="translate(-583.847 -337.14)" fill="#fff" fill-rule="evenodd"/>
      <path id="Path_5275" data-name="Path 5275" d="M599.322,336.76v.083h-.438v-.083Zm.029-.215v.083h-.278v-.083Z" transform="translate(-598.417 -336.349)" fill="#fff" fill-rule="evenodd"/>
    </g>
    <g id="Group_395" data-name="Group 395" transform="translate(-73.496 8.605)">
      <path id="Path_5276" data-name="Path 5276" d="M130.071,329.023h1.42v.083h-1.42Zm.212.414h.1v.08h-.1Zm1.212,0v.083h-.284v-.083Zm.153-.411h.1v.494h-.1Z" transform="translate(-130.071 -329.023)" fill="#fff" fill-rule="evenodd"/>
      <path id="Path_5277" data-name="Path 5277" d="M168,337.552v.083h-.538v-.083Zm-1-.193h.1v.276H167Z" transform="translate(-165.86 -337.14)" fill="#fff" fill-rule="evenodd"/>
      <path id="Path_5278" data-name="Path 5278" d="M132.215,329.023h.1v.494h-.1Zm-.244,0h.1v.494h-.1Zm-1.3.2v.083h-.518v-.083Zm1.137,0v.083h-.518v-.083Z" transform="translate(-130.153 -329.023)" fill="#fff" fill-rule="evenodd"/>
      <path id="Path_5279" data-name="Path 5279" d="M167,337.358h.1v.276H167Z" transform="translate(-165.86 -337.14)" fill="#fff" fill-rule="evenodd"/>
      <path id="Path_5280" data-name="Path 5280" d="M167,337.358h.1v.276H167Z" transform="translate(-165.86 -337.14)" fill="#fff" fill-rule="evenodd"/>
      <path id="Path_5281" data-name="Path 5281" d="M131.293,337.358h.1v.276h-.1Zm-1.137,0h.1v.276h-.1Zm.834,0h.1v.276h-.1Zm-.413,0h.1v.276h-.1Z" transform="translate(-130.153 -337.14)" fill="#fff" fill-rule="evenodd"/>
      <path id="Path_5282" data-name="Path 5282" d="M145.628,336.76v.083h-.438v-.083Zm.029-.215v.083h-.278v-.083Z" transform="translate(-144.723 -336.349)" fill="#fff" fill-rule="evenodd"/>
    </g>
    <g id="Group_396" data-name="Group 396" transform="translate(-71.16 8.605)">
      <path id="Path_5283" data-name="Path 5283" d="M205.764,329.023h1.42v.083h-1.42Zm.212.414h.1v.08h-.1Zm1.212,0v.083H206.9v-.083Zm.153-.411h.1v.494h-.1Z" transform="translate(-205.764 -329.023)" fill="#fff" fill-rule="evenodd"/>
      <path id="Path_5284" data-name="Path 5284" d="M243.7,337.552v.083h-.538v-.083Zm-1-.193h.1v.276h-.1Z" transform="translate(-241.554 -337.14)" fill="#fff" fill-rule="evenodd"/>
      <path id="Path_5285" data-name="Path 5285" d="M207.909,329.023h.1v.494h-.1Zm-.244,0h.1v.494h-.1Zm-1.3.2v.083h-.518v-.083Zm1.137,0v.083h-.518v-.083Z" transform="translate(-205.847 -329.023)" fill="#fff" fill-rule="evenodd"/>
      <path id="Path_5286" data-name="Path 5286" d="M242.693,337.358h.1v.276h-.1Z" transform="translate(-241.554 -337.14)" fill="#fff" fill-rule="evenodd"/>
      <path id="Path_5287" data-name="Path 5287" d="M242.693,337.358h.1v.276h-.1Z" transform="translate(-241.554 -337.14)" fill="#fff" fill-rule="evenodd"/>
      <path id="Path_5288" data-name="Path 5288" d="M206.987,337.358h.1v.276h-.1Zm-1.137,0h.1v.276h-.1Zm.834,0h.1v.276h-.1Zm-.413,0h.1v.276h-.1Z" transform="translate(-205.847 -337.14)" fill="#fff" fill-rule="evenodd"/>
      <path id="Path_5289" data-name="Path 5289" d="M221.322,336.76v.083h-.438v-.083Zm.029-.215v.083h-.278v-.083Z" transform="translate(-220.417 -336.349)" fill="#fff" fill-rule="evenodd"/>
    </g>
    <path id="Path_5290" data-name="Path 5290" d="M-179.963,0h25.927V4.123h-25.927Z" transform="translate(96.897)" fill="#239f40" fill-rule="evenodd"/>
    <g id="Group_397" data-name="Group 397" transform="translate(-68.81 8.605)">
      <path id="Path_5291" data-name="Path 5291" d="M281.9,329.023h1.42v.083H281.9Zm.212.414h.1v.08h-.1Zm1.212,0v.083h-.284v-.083Zm.153-.411h.1v.494h-.1Z" transform="translate(-281.899 -329.023)" fill="#fff" fill-rule="evenodd"/>
      <path id="Path_5292" data-name="Path 5292" d="M319.829,337.552v.083h-.538v-.083Zm-1-.193h.1v.276h-.1Z" transform="translate(-317.688 -337.14)" fill="#fff" fill-rule="evenodd"/>
      <path id="Path_5293" data-name="Path 5293" d="M284.043,329.023h.1v.494h-.1Zm-.244,0h.1v.494h-.1Zm-1.3.2v.083h-.518v-.083Zm1.137,0v.083h-.518v-.083Z" transform="translate(-281.981 -329.023)" fill="#fff" fill-rule="evenodd"/>
      <path id="Path_5294" data-name="Path 5294" d="M318.828,337.358h.1v.276h-.1Z" transform="translate(-317.688 -337.14)" fill="#fff" fill-rule="evenodd"/>
      <path id="Path_5295" data-name="Path 5295" d="M318.828,337.358h.1v.276h-.1Z" transform="translate(-317.688 -337.14)" fill="#fff" fill-rule="evenodd"/>
      <path id="Path_5296" data-name="Path 5296" d="M283.121,337.358h.1v.276h-.1Zm-1.137,0h.1v.276h-.1Zm.834,0h.1v.276h-.1Zm-.413,0h.1v.276h-.1Z" transform="translate(-281.981 -337.14)" fill="#fff" fill-rule="evenodd"/>
      <path id="Path_5297" data-name="Path 5297" d="M297.456,336.76v.083h-.438v-.083Zm.029-.215v.083h-.278v-.083Z" transform="translate(-296.551 -336.349)" fill="#fff" fill-rule="evenodd"/>
    </g>
    <g id="Group_398" data-name="Group 398" transform="translate(-66.474 8.605)">
      <path id="Path_5298" data-name="Path 5298" d="M357.583,329.023H359v.083h-1.42Zm.212.414h.1v.08h-.1Zm1.212,0v.083h-.284v-.083Zm.153-.411h.1v.494h-.1Z" transform="translate(-357.583 -329.023)" fill="#fff" fill-rule="evenodd"/>
      <path id="Path_5299" data-name="Path 5299" d="M395.514,337.552v.083h-.538v-.083Zm-1-.193h.1v.276h-.1Z" transform="translate(-393.372 -337.14)" fill="#fff" fill-rule="evenodd"/>
      <path id="Path_5300" data-name="Path 5300" d="M359.727,329.023h.1v.494h-.1Zm-.244,0h.1v.494h-.1Zm-1.3.2v.083h-.518v-.083Zm1.137,0v.083h-.518v-.083Z" transform="translate(-357.666 -329.023)" fill="#fff" fill-rule="evenodd"/>
      <path id="Path_5301" data-name="Path 5301" d="M394.512,337.358h.1v.276h-.1Z" transform="translate(-393.372 -337.14)" fill="#fff" fill-rule="evenodd"/>
      <path id="Path_5302" data-name="Path 5302" d="M394.512,337.358h.1v.276h-.1Z" transform="translate(-393.372 -337.14)" fill="#fff" fill-rule="evenodd"/>
      <path id="Path_5303" data-name="Path 5303" d="M358.806,337.358h.1v.276h-.1Zm-1.137,0h.1v.276h-.1Zm.834,0h.1v.276h-.1Zm-.413,0h.1v.276h-.1Z" transform="translate(-357.666 -337.14)" fill="#fff" fill-rule="evenodd"/>
      <path id="Path_5304" data-name="Path 5304" d="M373.14,336.76v.083H372.7v-.083Zm.029-.215v.083h-.278v-.083Z" transform="translate(-372.236 -336.349)" fill="#fff" fill-rule="evenodd"/>
    </g>
    <g id="Group_399" data-name="Group 399" transform="translate(-64.137 8.605)">
      <path id="Path_5305" data-name="Path 5305" d="M433.277,329.023h1.42v.083h-1.42Zm.212.414h.1v.08h-.1Zm1.212,0v.083h-.284v-.083Zm.153-.411h.1v.494h-.1Z" transform="translate(-433.277 -329.023)" fill="#fff" fill-rule="evenodd"/>
      <path id="Path_5306" data-name="Path 5306" d="M471.208,337.552v.083h-.538v-.083Zm-1-.193h.1v.276h-.1Z" transform="translate(-469.066 -337.14)" fill="#fff" fill-rule="evenodd"/>
      <path id="Path_5307" data-name="Path 5307" d="M435.421,329.023h.1v.494h-.1Zm-.244,0h.1v.494h-.1Zm-1.3.2v.083h-.518v-.083Zm1.137,0v.083H434.5v-.083Z" transform="translate(-433.36 -329.023)" fill="#fff" fill-rule="evenodd"/>
      <path id="Path_5308" data-name="Path 5308" d="M470.206,337.358h.1v.276h-.1Z" transform="translate(-469.066 -337.14)" fill="#fff" fill-rule="evenodd"/>
      <path id="Path_5309" data-name="Path 5309" d="M470.206,337.358h.1v.276h-.1Z" transform="translate(-469.066 -337.14)" fill="#fff" fill-rule="evenodd"/>
      <path id="Path_5310" data-name="Path 5310" d="M434.5,337.358h.1v.276h-.1Zm-1.137,0h.1v.276h-.1Zm.834,0h.1v.276h-.1Zm-.413,0h.1v.276h-.1Z" transform="translate(-433.36 -337.14)" fill="#fff" fill-rule="evenodd"/>
      <path id="Path_5311" data-name="Path 5311" d="M448.834,336.76v.083H448.4v-.083Zm.029-.215v.083h-.278v-.083Z" transform="translate(-447.929 -336.349)" fill="#fff" fill-rule="evenodd"/>
    </g>
    <g id="Group_400" data-name="Group 400" transform="translate(-61.787 8.605)">
      <path id="Path_5312" data-name="Path 5312" d="M509.411,329.023h1.42v.083h-1.42Zm.212.414h.1v.08h-.1Zm1.212,0v.083h-.284v-.083Zm.153-.411h.1v.494h-.1Z" transform="translate(-509.411 -329.023)" fill="#fff" fill-rule="evenodd"/>
      <path id="Path_5313" data-name="Path 5313" d="M547.342,337.552v.083H546.8v-.083Zm-1-.193h.1v.276h-.1Z" transform="translate(-545.201 -337.14)" fill="#fff" fill-rule="evenodd"/>
      <path id="Path_5314" data-name="Path 5314" d="M511.555,329.023h.1v.494h-.1Zm-.244,0h.1v.494h-.1Zm-1.3.2v.083H509.5v-.083Zm1.137,0v.083h-.518v-.083Z" transform="translate(-509.494 -329.023)" fill="#fff" fill-rule="evenodd"/>
      <path id="Path_5315" data-name="Path 5315" d="M546.34,337.358h.1v.276h-.1Z" transform="translate(-545.201 -337.14)" fill="#fff" fill-rule="evenodd"/>
      <path id="Path_5316" data-name="Path 5316" d="M546.34,337.358h.1v.276h-.1Z" transform="translate(-545.201 -337.14)" fill="#fff" fill-rule="evenodd"/>
      <path id="Path_5317" data-name="Path 5317" d="M510.634,337.358h.1v.276h-.1Zm-1.137,0h.1v.276h-.1Zm.834,0h.1v.276h-.1Zm-.413,0h.1v.276h-.1Z" transform="translate(-509.494 -337.14)" fill="#fff" fill-rule="evenodd"/>
      <path id="Path_5318" data-name="Path 5318" d="M524.968,336.76v.083h-.438v-.083Zm.029-.215v.083h-.278v-.083Z" transform="translate(-524.064 -336.349)" fill="#fff" fill-rule="evenodd"/>
    </g>
    <g id="Group_401" data-name="Group 401" transform="translate(-82.829 8.605)">
      <path id="Path_5319" data-name="Path 5319" d="M-172.3,329.023h1.42v.083h-1.42Zm.212.414h.1v.08h-.1Zm1.212,0v.083h-.284v-.083Zm.153-.411h.1v.494h-.1Z" transform="translate(172.301 -329.023)" fill="#fff" fill-rule="evenodd"/>
      <path id="Path_5320" data-name="Path 5320" d="M-134.371,337.552v.083h-.538v-.083Zm-1-.193h.1v.276h-.1Z" transform="translate(136.512 -337.14)" fill="#fff" fill-rule="evenodd"/>
      <path id="Path_5321" data-name="Path 5321" d="M-170.157,329.023h.1v.494h-.1Zm-.244,0h.1v.494h-.1Zm-1.3.2v.083h-.518v-.083Zm1.137,0v.083h-.518v-.083Z" transform="translate(172.219 -329.023)" fill="#fff" fill-rule="evenodd"/>
      <path id="Path_5322" data-name="Path 5322" d="M-135.372,337.358h.1v.276h-.1Z" transform="translate(136.512 -337.14)" fill="#fff" fill-rule="evenodd"/>
      <path id="Path_5323" data-name="Path 5323" d="M-135.372,337.358h.1v.276h-.1Z" transform="translate(136.512 -337.14)" fill="#fff" fill-rule="evenodd"/>
      <path id="Path_5324" data-name="Path 5324" d="M-171.079,337.358h.1v.276h-.1Zm-1.137,0h.1v.276h-.1Zm.834,0h.1v.276h-.1Zm-.413,0h.1v.276h-.1Z" transform="translate(172.219 -337.14)" fill="#fff" fill-rule="evenodd"/>
      <path id="Path_5325" data-name="Path 5325" d="M-156.744,336.76v.083h-.438v-.083Zm.029-.215v.083h-.278v-.083Z" transform="translate(157.649 -336.349)" fill="#fff" fill-rule="evenodd"/>
    </g>
    <g id="Group_402" data-name="Group 402" transform="translate(-78.136 3.517)">
      <path id="Path_5326" data-name="Path 5326" d="M-20.276,134.477h1.42v.083h-1.42Zm.212.414h.1v.08h-.1Zm1.212,0v.083h-.284v-.083Zm.153-.411h.1v.494h-.1Z" transform="translate(20.276 -134.477)" fill="#fff" fill-rule="evenodd"/>
      <path id="Path_5327" data-name="Path 5327" d="M17.654,143.006v.083h-.538v-.083Zm-1-.193h.1v.276h-.1Z" transform="translate(-15.513 -142.594)" fill="#fff" fill-rule="evenodd"/>
      <path id="Path_5328" data-name="Path 5328" d="M-18.132,134.477h.1v.494h-.1Zm-.244,0h.1v.494h-.1Zm-1.3.2v.083h-.518v-.083Zm1.137,0v.083h-.518v-.083Z" transform="translate(20.194 -134.477)" fill="#fff" fill-rule="evenodd"/>
      <path id="Path_5329" data-name="Path 5329" d="M16.653,142.812h.1v.276h-.1Z" transform="translate(-15.513 -142.594)" fill="#fff" fill-rule="evenodd"/>
      <path id="Path_5330" data-name="Path 5330" d="M16.653,142.812h.1v.276h-.1Z" transform="translate(-15.513 -142.594)" fill="#fff" fill-rule="evenodd"/>
      <path id="Path_5331" data-name="Path 5331" d="M-19.054,142.812h.1v.276h-.1Zm-1.137,0h.1v.276h-.1Zm.834,0h.1v.276h-.1Zm-.413,0h.1v.276h-.1Z" transform="translate(20.194 -142.594)" fill="#fff" fill-rule="evenodd"/>
      <path id="Path_5332" data-name="Path 5332" d="M-4.719,142.214v.083h-.438v-.083ZM-4.69,142v.083h-.278V142Z" transform="translate(5.624 -141.803)" fill="#fff" fill-rule="evenodd"/>
    </g>
    <g id="Group_403" data-name="Group 403" transform="translate(-80.469 3.517)">
      <path id="Path_5333" data-name="Path 5333" d="M-95.839,134.477h1.42v.083h-1.42Zm.212.414h.1v.08h-.1Zm1.212,0v.083H-94.7v-.083Zm.153-.411h.1v.494h-.1Z" transform="translate(95.839 -134.477)" fill="#fff" fill-rule="evenodd"/>
      <path id="Path_5334" data-name="Path 5334" d="M-57.908,143.006v.083h-.538v-.083Zm-1-.193h.1v.276h-.1Z" transform="translate(60.05 -142.594)" fill="#fff" fill-rule="evenodd"/>
      <path id="Path_5335" data-name="Path 5335" d="M-93.695,134.477h.1v.494h-.1Zm-.244,0h.1v.494h-.1Zm-1.3.2v.083h-.518v-.083Zm1.137,0v.083h-.518v-.083Z" transform="translate(95.756 -134.477)" fill="#fff" fill-rule="evenodd"/>
      <path id="Path_5336" data-name="Path 5336" d="M-58.91,142.812h.1v.276h-.1Z" transform="translate(60.05 -142.594)" fill="#fff" fill-rule="evenodd"/>
      <path id="Path_5337" data-name="Path 5337" d="M-58.91,142.812h.1v.276h-.1Z" transform="translate(60.05 -142.594)" fill="#fff" fill-rule="evenodd"/>
      <path id="Path_5338" data-name="Path 5338" d="M-94.616,142.812h.1v.276h-.1Zm-1.137,0h.1v.276h-.1Zm.834,0h.1v.276h-.1Zm-.413,0h.1v.276h-.1Z" transform="translate(95.756 -142.594)" fill="#fff" fill-rule="evenodd"/>
      <path id="Path_5339" data-name="Path 5339" d="M-80.282,142.214v.083h-.438v-.083Zm.029-.215v.083h-.278V142Z" transform="translate(81.186 -141.803)" fill="#fff" fill-rule="evenodd"/>
    </g>
    <g id="Group_404" data-name="Group 404" transform="translate(-75.824 3.517)">
      <path id="Path_5340" data-name="Path 5340" d="M54.653,134.477h1.42v.083h-1.42Zm.212.414h.1v.08h-.1Zm1.212,0v.083h-.284v-.083Zm.153-.411h.1v.494h-.1Z" transform="translate(-54.653 -134.477)" fill="#fff" fill-rule="evenodd"/>
      <path id="Path_5341" data-name="Path 5341" d="M92.583,143.006v.083h-.538v-.083Zm-1-.193h.1v.276h-.1Z" transform="translate(-90.442 -142.594)" fill="#fff" fill-rule="evenodd"/>
      <path id="Path_5342" data-name="Path 5342" d="M56.8,134.477h.1v.494h-.1Zm-.244,0h.1v.494h-.1Zm-1.3.2v.083h-.518v-.083Zm1.137,0v.083h-.518v-.083Z" transform="translate(-54.736 -134.477)" fill="#fff" fill-rule="evenodd"/>
      <path id="Path_5343" data-name="Path 5343" d="M91.582,142.812h.1v.276h-.1Z" transform="translate(-90.442 -142.594)" fill="#fff" fill-rule="evenodd"/>
      <path id="Path_5344" data-name="Path 5344" d="M91.582,142.812h.1v.276h-.1Z" transform="translate(-90.442 -142.594)" fill="#fff" fill-rule="evenodd"/>
      <path id="Path_5345" data-name="Path 5345" d="M55.876,142.812h.1v.276h-.1Zm-1.137,0h.1v.276h-.1Zm.834,0h.1v.276h-.1Zm-.413,0h.1v.276h-.1Z" transform="translate(-54.736 -142.594)" fill="#fff" fill-rule="evenodd"/>
      <path id="Path_5346" data-name="Path 5346" d="M70.21,142.214v.083h-.438v-.083Zm.029-.215v.083h-.278V142Z" transform="translate(-69.305 -141.803)" fill="#fff" fill-rule="evenodd"/>
    </g>
    <g id="Group_405" data-name="Group 405" transform="translate(-59.492 3.517)">
      <path id="Path_5347" data-name="Path 5347" d="M583.764,134.477h1.42v.083h-1.42Zm.212.414h.1v.08h-.1Zm1.212,0v.083H584.9v-.083Zm.153-.411h.1v.494h-.1Z" transform="translate(-583.764 -134.477)" fill="#fff" fill-rule="evenodd"/>
      <path id="Path_5348" data-name="Path 5348" d="M621.7,143.006v.083h-.538v-.083Zm-1-.193h.1v.276h-.1Z" transform="translate(-619.554 -142.594)" fill="#fff" fill-rule="evenodd"/>
      <path id="Path_5349" data-name="Path 5349" d="M585.909,134.477h.1v.494h-.1Zm-.244,0h.1v.494h-.1Zm-1.3.2v.083h-.518v-.083Zm1.137,0v.083h-.518v-.083Z" transform="translate(-583.847 -134.477)" fill="#fff" fill-rule="evenodd"/>
      <path id="Path_5350" data-name="Path 5350" d="M620.693,142.812h.1v.276h-.1Z" transform="translate(-619.554 -142.594)" fill="#fff" fill-rule="evenodd"/>
      <path id="Path_5351" data-name="Path 5351" d="M620.693,142.812h.1v.276h-.1Z" transform="translate(-619.554 -142.594)" fill="#fff" fill-rule="evenodd"/>
      <path id="Path_5352" data-name="Path 5352" d="M584.987,142.812h.1v.276h-.1Zm-1.137,0h.1v.276h-.1Zm.834,0h.1v.276h-.1Zm-.413,0h.1v.276h-.1Z" transform="translate(-583.847 -142.594)" fill="#fff" fill-rule="evenodd"/>
      <path id="Path_5353" data-name="Path 5353" d="M599.322,142.214v.083h-.438v-.083Zm.029-.215v.083h-.278V142Z" transform="translate(-598.417 -141.803)" fill="#fff" fill-rule="evenodd"/>
    </g>
    <g id="Group_406" data-name="Group 406" transform="translate(-73.496 3.517)">
      <path id="Path_5354" data-name="Path 5354" d="M130.071,134.477h1.42v.083h-1.42Zm.212.414h.1v.08h-.1Zm1.212,0v.083h-.284v-.083Zm.153-.411h.1v.494h-.1Z" transform="translate(-130.071 -134.477)" fill="#fff" fill-rule="evenodd"/>
      <path id="Path_5355" data-name="Path 5355" d="M168,143.006v.083h-.538v-.083Zm-1-.193h.1v.276H167Z" transform="translate(-165.86 -142.594)" fill="#fff" fill-rule="evenodd"/>
      <path id="Path_5356" data-name="Path 5356" d="M132.215,134.477h.1v.494h-.1Zm-.244,0h.1v.494h-.1Zm-1.3.2v.083h-.518v-.083Zm1.137,0v.083h-.518v-.083Z" transform="translate(-130.153 -134.477)" fill="#fff" fill-rule="evenodd"/>
      <path id="Path_5357" data-name="Path 5357" d="M167,142.812h.1v.276H167Z" transform="translate(-165.86 -142.594)" fill="#fff" fill-rule="evenodd"/>
      <path id="Path_5358" data-name="Path 5358" d="M167,142.812h.1v.276H167Z" transform="translate(-165.86 -142.594)" fill="#fff" fill-rule="evenodd"/>
      <path id="Path_5359" data-name="Path 5359" d="M131.293,142.812h.1v.276h-.1Zm-1.137,0h.1v.276h-.1Zm.834,0h.1v.276h-.1Zm-.413,0h.1v.276h-.1Z" transform="translate(-130.153 -142.594)" fill="#fff" fill-rule="evenodd"/>
      <path id="Path_5360" data-name="Path 5360" d="M145.628,142.214v.083h-.438v-.083Zm.029-.215v.083h-.278V142Z" transform="translate(-144.723 -141.803)" fill="#fff" fill-rule="evenodd"/>
    </g>
    <g id="Group_407" data-name="Group 407" transform="translate(-71.16 3.517)">
      <path id="Path_5361" data-name="Path 5361" d="M205.764,134.477h1.42v.083h-1.42Zm.212.414h.1v.08h-.1Zm1.212,0v.083H206.9v-.083Zm.153-.411h.1v.494h-.1Z" transform="translate(-205.764 -134.477)" fill="#fff" fill-rule="evenodd"/>
      <path id="Path_5362" data-name="Path 5362" d="M243.7,143.006v.083h-.538v-.083Zm-1-.193h.1v.276h-.1Z" transform="translate(-241.554 -142.594)" fill="#fff" fill-rule="evenodd"/>
      <path id="Path_5363" data-name="Path 5363" d="M207.909,134.477h.1v.494h-.1Zm-.244,0h.1v.494h-.1Zm-1.3.2v.083h-.518v-.083Zm1.137,0v.083h-.518v-.083Z" transform="translate(-205.847 -134.477)" fill="#fff" fill-rule="evenodd"/>
      <path id="Path_5364" data-name="Path 5364" d="M242.693,142.812h.1v.276h-.1Z" transform="translate(-241.554 -142.594)" fill="#fff" fill-rule="evenodd"/>
      <path id="Path_5365" data-name="Path 5365" d="M242.693,142.812h.1v.276h-.1Z" transform="translate(-241.554 -142.594)" fill="#fff" fill-rule="evenodd"/>
      <path id="Path_5366" data-name="Path 5366" d="M206.987,142.812h.1v.276h-.1Zm-1.137,0h.1v.276h-.1Zm.834,0h.1v.276h-.1Zm-.413,0h.1v.276h-.1Z" transform="translate(-205.847 -142.594)" fill="#fff" fill-rule="evenodd"/>
      <path id="Path_5367" data-name="Path 5367" d="M221.322,142.214v.083h-.438v-.083Zm.029-.215v.083h-.278V142Z" transform="translate(-220.417 -141.803)" fill="#fff" fill-rule="evenodd"/>
    </g>
    <g id="Group_408" data-name="Group 408" transform="translate(-68.81 3.517)">
      <path id="Path_5368" data-name="Path 5368" d="M281.9,134.477h1.42v.083H281.9Zm.212.414h.1v.08h-.1Zm1.212,0v.083h-.284v-.083Zm.153-.411h.1v.494h-.1Z" transform="translate(-281.899 -134.477)" fill="#fff" fill-rule="evenodd"/>
      <path id="Path_5369" data-name="Path 5369" d="M319.829,143.006v.083h-.538v-.083Zm-1-.193h.1v.276h-.1Z" transform="translate(-317.688 -142.594)" fill="#fff" fill-rule="evenodd"/>
      <path id="Path_5370" data-name="Path 5370" d="M284.043,134.477h.1v.494h-.1Zm-.244,0h.1v.494h-.1Zm-1.3.2v.083h-.518v-.083Zm1.137,0v.083h-.518v-.083Z" transform="translate(-281.981 -134.477)" fill="#fff" fill-rule="evenodd"/>
      <path id="Path_5371" data-name="Path 5371" d="M318.828,142.812h.1v.276h-.1Z" transform="translate(-317.688 -142.594)" fill="#fff" fill-rule="evenodd"/>
      <path id="Path_5372" data-name="Path 5372" d="M318.828,142.812h.1v.276h-.1Z" transform="translate(-317.688 -142.594)" fill="#fff" fill-rule="evenodd"/>
      <path id="Path_5373" data-name="Path 5373" d="M283.121,142.812h.1v.276h-.1Zm-1.137,0h.1v.276h-.1Zm.834,0h.1v.276h-.1Zm-.413,0h.1v.276h-.1Z" transform="translate(-281.981 -142.594)" fill="#fff" fill-rule="evenodd"/>
      <path id="Path_5374" data-name="Path 5374" d="M297.456,142.214v.083h-.438v-.083Zm.029-.215v.083h-.278V142Z" transform="translate(-296.551 -141.803)" fill="#fff" fill-rule="evenodd"/>
    </g>
    <g id="Group_409" data-name="Group 409" transform="translate(-66.474 3.517)">
      <path id="Path_5375" data-name="Path 5375" d="M357.583,134.477H359v.083h-1.42Zm.212.414h.1v.08h-.1Zm1.212,0v.083h-.284v-.083Zm.153-.411h.1v.494h-.1Z" transform="translate(-357.583 -134.477)" fill="#fff" fill-rule="evenodd"/>
      <path id="Path_5376" data-name="Path 5376" d="M395.514,143.006v.083h-.538v-.083Zm-1-.193h.1v.276h-.1Z" transform="translate(-393.372 -142.594)" fill="#fff" fill-rule="evenodd"/>
      <path id="Path_5377" data-name="Path 5377" d="M359.727,134.477h.1v.494h-.1Zm-.244,0h.1v.494h-.1Zm-1.3.2v.083h-.518v-.083Zm1.137,0v.083h-.518v-.083Z" transform="translate(-357.666 -134.477)" fill="#fff" fill-rule="evenodd"/>
      <path id="Path_5378" data-name="Path 5378" d="M394.512,142.812h.1v.276h-.1Z" transform="translate(-393.372 -142.594)" fill="#fff" fill-rule="evenodd"/>
      <path id="Path_5379" data-name="Path 5379" d="M394.512,142.812h.1v.276h-.1Z" transform="translate(-393.372 -142.594)" fill="#fff" fill-rule="evenodd"/>
      <path id="Path_5380" data-name="Path 5380" d="M358.806,142.812h.1v.276h-.1Zm-1.137,0h.1v.276h-.1Zm.834,0h.1v.276h-.1Zm-.413,0h.1v.276h-.1Z" transform="translate(-357.666 -142.594)" fill="#fff" fill-rule="evenodd"/>
      <path id="Path_5381" data-name="Path 5381" d="M373.14,142.214v.083H372.7v-.083Zm.029-.215v.083h-.278V142Z" transform="translate(-372.236 -141.803)" fill="#fff" fill-rule="evenodd"/>
    </g>
    <g id="Group_410" data-name="Group 410" transform="translate(-64.137 3.517)">
      <path id="Path_5382" data-name="Path 5382" d="M433.277,134.477h1.42v.083h-1.42Zm.212.414h.1v.08h-.1Zm1.212,0v.083h-.284v-.083Zm.153-.411h.1v.494h-.1Z" transform="translate(-433.277 -134.477)" fill="#fff" fill-rule="evenodd"/>
      <path id="Path_5383" data-name="Path 5383" d="M471.208,143.006v.083h-.538v-.083Zm-1-.193h.1v.276h-.1Z" transform="translate(-469.066 -142.594)" fill="#fff" fill-rule="evenodd"/>
      <path id="Path_5384" data-name="Path 5384" d="M435.421,134.477h.1v.494h-.1Zm-.244,0h.1v.494h-.1Zm-1.3.2v.083h-.518v-.083Zm1.137,0v.083H434.5v-.083Z" transform="translate(-433.36 -134.477)" fill="#fff" fill-rule="evenodd"/>
      <path id="Path_5385" data-name="Path 5385" d="M470.206,142.812h.1v.276h-.1Z" transform="translate(-469.066 -142.594)" fill="#fff" fill-rule="evenodd"/>
      <path id="Path_5386" data-name="Path 5386" d="M470.206,142.812h.1v.276h-.1Z" transform="translate(-469.066 -142.594)" fill="#fff" fill-rule="evenodd"/>
      <path id="Path_5387" data-name="Path 5387" d="M434.5,142.812h.1v.276h-.1Zm-1.137,0h.1v.276h-.1Zm.834,0h.1v.276h-.1Zm-.413,0h.1v.276h-.1Z" transform="translate(-433.36 -142.594)" fill="#fff" fill-rule="evenodd"/>
      <path id="Path_5388" data-name="Path 5388" d="M448.834,142.214v.083H448.4v-.083Zm.029-.215v.083h-.278V142Z" transform="translate(-447.929 -141.803)" fill="#fff" fill-rule="evenodd"/>
    </g>
    <g id="Group_411" data-name="Group 411" transform="translate(-61.787 3.517)">
      <path id="Path_5389" data-name="Path 5389" d="M509.411,134.477h1.42v.083h-1.42Zm.212.414h.1v.08h-.1Zm1.212,0v.083h-.284v-.083Zm.153-.411h.1v.494h-.1Z" transform="translate(-509.411 -134.477)" fill="#fff" fill-rule="evenodd"/>
      <path id="Path_5390" data-name="Path 5390" d="M547.342,143.006v.083H546.8v-.083Zm-1-.193h.1v.276h-.1Z" transform="translate(-545.201 -142.594)" fill="#fff" fill-rule="evenodd"/>
      <path id="Path_5391" data-name="Path 5391" d="M511.555,134.477h.1v.494h-.1Zm-.244,0h.1v.494h-.1Zm-1.3.2v.083H509.5v-.083Zm1.137,0v.083h-.518v-.083Z" transform="translate(-509.494 -134.477)" fill="#fff" fill-rule="evenodd"/>
      <path id="Path_5392" data-name="Path 5392" d="M546.34,142.812h.1v.276h-.1Z" transform="translate(-545.201 -142.594)" fill="#fff" fill-rule="evenodd"/>
      <path id="Path_5393" data-name="Path 5393" d="M546.34,142.812h.1v.276h-.1Z" transform="translate(-545.201 -142.594)" fill="#fff" fill-rule="evenodd"/>
      <path id="Path_5394" data-name="Path 5394" d="M510.634,142.812h.1v.276h-.1Zm-1.137,0h.1v.276h-.1Zm.834,0h.1v.276h-.1Zm-.413,0h.1v.276h-.1Z" transform="translate(-509.494 -142.594)" fill="#fff" fill-rule="evenodd"/>
      <path id="Path_5395" data-name="Path 5395" d="M524.968,142.214v.083h-.438v-.083ZM525,142v.083h-.278V142Z" transform="translate(-524.064 -141.803)" fill="#fff" fill-rule="evenodd"/>
    </g>
    <g id="Group_412" data-name="Group 412" transform="translate(-82.829 3.517)">
      <path id="Path_5396" data-name="Path 5396" d="M-172.3,134.477h1.42v.083h-1.42Zm.212.414h.1v.08h-.1Zm1.212,0v.083h-.284v-.083Zm.153-.411h.1v.494h-.1Z" transform="translate(172.301 -134.477)" fill="#fff" fill-rule="evenodd"/>
      <path id="Path_5397" data-name="Path 5397" d="M-134.371,143.006v.083h-.538v-.083Zm-1-.193h.1v.276h-.1Z" transform="translate(136.512 -142.594)" fill="#fff" fill-rule="evenodd"/>
      <path id="Path_5398" data-name="Path 5398" d="M-170.157,134.477h.1v.494h-.1Zm-.244,0h.1v.494h-.1Zm-1.3.2v.083h-.518v-.083Zm1.137,0v.083h-.518v-.083Z" transform="translate(172.219 -134.477)" fill="#fff" fill-rule="evenodd"/>
      <path id="Path_5399" data-name="Path 5399" d="M-135.372,142.812h.1v.276h-.1Z" transform="translate(136.512 -142.594)" fill="#fff" fill-rule="evenodd"/>
      <path id="Path_5400" data-name="Path 5400" d="M-135.372,142.812h.1v.276h-.1Z" transform="translate(136.512 -142.594)" fill="#fff" fill-rule="evenodd"/>
      <path id="Path_5401" data-name="Path 5401" d="M-171.079,142.812h.1v.276h-.1Zm-1.137,0h.1v.276h-.1Zm.834,0h.1v.276h-.1Zm-.413,0h.1v.276h-.1Z" transform="translate(172.219 -142.594)" fill="#fff" fill-rule="evenodd"/>
      <path id="Path_5402" data-name="Path 5402" d="M-156.744,142.214v.083h-.438v-.083Zm.029-.215v.083h-.278V142Z" transform="translate(157.649 -141.803)" fill="#fff" fill-rule="evenodd"/>
    </g>
    <g id="Group_413" data-name="Group 413" transform="translate(-83.066 8.324)">
      <path id="Path_5403" data-name="Path 5403" d="M-176.439,318.288h.175v.258h-.175Zm4.645,0h.175v.258h-.175Zm-8.209,0h.175v.258H-180Zm2.358,0h.175v.258h-.175Zm2.341,0h.175v.258h-.175Zm1.158,0h.175v.258h-.175Zm1.182,0h.175v.258h-.175Zm2.329,0h.175v.258h-.175Zm5.876,0h.175v.258h-.175Zm-4.693,0h.175v.258h-.175Zm1.158,0h.175v.258h-.175Zm1.17,0h.175v.258h-.175Zm1.17,0h.175v.258h-.175Zm9.351,0h.175v.258h-.175Zm-7.022,0h.175v.258h-.175Zm1.182,0h.175v.258h-.175Zm1.195,0h.175v.258h-.175Zm1.122,0h.175v.258h-.175Zm1.194,0h.175v.258h-.175Zm1.17,0h.175v.258h-.175Zm3.463,0h.175v.258h-.175Zm-1.122,0h.175v.258h-.175Zm-23.407,0h.175v.258h-.175Z" transform="translate(180.003 -318.288)" fill="#d90000" fill-rule="evenodd"/>
    </g>
    <g id="Group_414" data-name="Group 414" transform="translate(-83.066 3.987)">
      <path id="Path_5404" data-name="Path 5404" d="M-176.439,152.444h.175v.258h-.175Zm4.645,0h.175v.258h-.175Zm-8.209,0h.175v.258H-180Zm2.358,0h.175v.258h-.175Zm2.341,0h.175v.258h-.175Zm1.158,0h.175v.258h-.175Zm1.182,0h.175v.258h-.175Zm2.329,0h.175v.258h-.175Zm5.876,0h.175v.258h-.175Zm-4.693,0h.175v.258h-.175Zm1.158,0h.175v.258h-.175Zm1.17,0h.175v.258h-.175Zm1.17,0h.175v.258h-.175Zm9.351,0h.175v.258h-.175Zm-7.022,0h.175v.258h-.175Zm1.182,0h.175v.258h-.175Zm1.195,0h.175v.258h-.175Zm1.122,0h.175v.258h-.175Zm1.194,0h.175v.258h-.175Zm1.17,0h.175v.258h-.175Zm3.463,0h.175v.258h-.175Zm-1.122,0h.175v.258h-.175Zm-23.407,0h.175v.258h-.175Z" transform="translate(180.003 -152.444)" fill="#239e3f" fill-rule="evenodd"/>
    </g>
    <g id="Group_415" data-name="Group 415" transform="translate(-72.309 4.423)">
      <path id="Path_5405" data-name="Path 5405" d="M235.837,185.146a1.689,1.689,0,0,1-.455,2.579c-.683.436-.26.458-.24.531,1.1-.494,1.457-1.164,1.449-1.765a1.66,1.66,0,0,0-.754-1.345Z" transform="translate(-232.943 -184.727)" fill="#da0000" fill-rule="evenodd"/>
      <path id="Path_5406" data-name="Path 5406" d="M171.579,182.649a1.656,1.656,0,0,1,.452,2.755C172.821,185.255,173.824,183.285,171.579,182.649Zm-1.666,0a1.656,1.656,0,0,0-.452,2.755C168.67,185.255,167.667,183.285,169.912,182.649Z" transform="translate(-168.539 -182.296)" fill="#da0000" fill-rule="evenodd"/>
      <path id="Path_5407" data-name="Path 5407" d="M194.012,185.146a1.689,1.689,0,0,0,.455,2.579c.683.436.26.458.24.531-1.1-.494-1.457-1.164-1.449-1.765a1.66,1.66,0,0,1,.754-1.345Z" transform="translate(-192.495 -184.727)" fill="#da0000" fill-rule="evenodd"/>
      <path id="Path_5408" data-name="Path 5408" d="M198.9,172.523a3.531,3.531,0,0,1-1.374-.227c.066.109.121.178.187.287a2.924,2.924,0,0,0,1.187-.06Zm-2.748,0a3.531,3.531,0,0,0,1.374-.227c-.066.109-.121.178-.187.287a2.924,2.924,0,0,1-1.187-.06Zm.789-3.4c.087.2.316.225.56.109.178.091.454.1.549-.1.072.485-.53.37-.552.275-.224.184-.641.078-.557-.285Z" transform="translate(-195.295 -169.122)" fill="#da0000" fill-rule="evenodd"/>
      <path id="Path_5409" data-name="Path 5409" d="M231.589,185.5l.226-.219.032-2.947-.269-.2-.269.192.054,2.965.226.21Z" transform="translate(-229.372 -181.793)" fill="#da0000" fill-rule="evenodd"/>
    </g>
  </g>
</svg>
