<svg xmlns="http://www.w3.org/2000/svg" xmlns:xlink="http://www.w3.org/1999/xlink" style="margin: auto; background: rgba(255, 255, 255, 0); display: block;" width="200px" height="200px" viewBox="0 0 100 100" preserveAspectRatio="xMidYMid">
 <g transform="translate(50 50)">  <g transform="translate(-19 -19) scale(0.6)"> <g>
<animateTransform attributeName="transform" type="rotate" values="0;36" keyTimes="0;1" dur="0.22075055187637968s" begin="0s" repeatCount="indefinite"></animateTransform><path d="M30.476201541474097 19.16249304248933 L41.78991004045886 30.47620154147409 L30.476201541474094 41.78991004045885 L19.162493042489334 30.47620154147409 A36 36 0 0 1 13.39233416351616 33.41624433793717 L13.39233416351616 33.41624433793717 L15.895285604159856 49.21925778745938 L0.0922721546376497 51.72220922810307 L-2.410679286006045 35.919195778580864 A36 36 0 0 1 -8.806949676208555 34.906126072664236 L-8.806949676208555 34.906126072664236 L-16.0707976720413 49.16223045967812 L-30.32690205905519 41.89838246384537 L-23.06305406322244 27.642278076831488 A36 36 0 0 1 -27.64227807683148 23.06305406322245 L-27.64227807683148 23.06305406322245 L-41.898382463845365 30.3269020590552 L-49.16223045967812 16.070797672041312 L-34.906126072664236 8.806949676208562 A36 36 0 0 1 -35.919195778580864 2.4106792860060517 L-35.919195778580864 2.4106792860060517 L-51.72220922810307 -0.09227215463764038 L-49.21925778745938 -15.895285604159845 L-33.41624433793717 -13.392334163516153 A36 36 0 0 1 -30.476201541474097 -19.162493042489327 L-30.476201541474097 -19.162493042489327 L-41.78991004045886 -30.476201541474083 L-30.476201541474097 -41.78991004045885 L-19.162493042489338 -30.47620154147409 A36 36 0 0 1 -13.392334163516164 -33.41624433793717 L-13.392334163516164 -33.41624433793717 L-15.89528560415986 -49.21925778745937 L-0.09227215463765548 -51.72220922810307 L2.4106792860060406 -35.919195778580864 A36 36 0 0 1 8.806949676208552 -34.906126072664236 L8.806949676208552 -34.906126072664236 L16.070797672041298 -49.16223045967813 L30.326902059055186 -41.89838246384538 L23.063054063222438 -27.64227807683149 A36 36 0 0 1 27.64227807683148 -23.06305406322245 L27.64227807683148 -23.06305406322245 L41.898382463845365 -30.3269020590552 L49.16223045967812 -16.070797672041316 L34.906126072664236 -8.806949676208566 A36 36 0 0 1 35.919195778580864 -2.410679286006056 L35.919195778580864 -2.410679286006056 L51.72220922810307 0.09227215463763372 L49.21925778745938 15.89528560415984 L33.41624433793717 13.39233416351615 A36 36 0 0 1 30.4762015414741 19.162493042489327 M0 -17A17 17 0 1 0 0 17 A17 17 0 1 0 0 -17" fill="#00d3ff"></path></g></g> <g transform="translate(19 19) scale(0.6)"> <g>
<animateTransform attributeName="transform" type="rotate" values="36;0" keyTimes="0;1" dur="0.22075055187637968s" begin="-0.11037527593818984s" repeatCount="indefinite"></animateTransform><path d="M-30.476201541474097 -19.162493042489327 L-41.78991004045886 -30.476201541474083 L-30.476201541474097 -41.78991004045885 L-19.162493042489338 -30.47620154147409 A36 36 0 0 1 -13.392334163516164 -33.41624433793717 L-13.392334163516164 -33.41624433793717 L-15.89528560415986 -49.21925778745937 L-0.09227215463765548 -51.72220922810307 L2.4106792860060406 -35.919195778580864 A36 36 0 0 1 8.806949676208552 -34.906126072664236 L8.806949676208552 -34.906126072664236 L16.070797672041298 -49.16223045967813 L30.326902059055186 -41.89838246384538 L23.063054063222438 -27.64227807683149 A36 36 0 0 1 27.64227807683148 -23.06305406322245 L27.64227807683148 -23.06305406322245 L41.898382463845365 -30.3269020590552 L49.16223045967812 -16.070797672041316 L34.906126072664236 -8.806949676208566 A36 36 0 0 1 35.919195778580864 -2.410679286006056 L35.919195778580864 -2.410679286006056 L51.72220922810307 0.09227215463763372 L49.21925778745938 15.89528560415984 L33.41624433793717 13.39233416351615 A36 36 0 0 1 30.4762015414741 19.162493042489327 L30.4762015414741 19.162493042489327 L41.789910040458864 30.476201541474083 L30.476201541474104 41.78991004045884 L19.16249304248934 30.476201541474087 A36 36 0 0 1 13.392334163516168 33.416244337937165 L13.392334163516168 33.416244337937165 L15.895285604159866 49.21925778745937 L0.0922721546376617 51.72220922810307 L-2.4106792860060366 35.919195778580864 A36 36 0 0 1 -8.80694967620861 34.90612607266422 L-8.80694967620861 34.90612607266422 L-16.070797672041365 49.1622304596781 L-30.326902059055193 41.89838246384538 L-23.063054063222438 27.642278076831495 A36 36 0 0 1 -27.64227807683152 23.063054063222406 L-27.64227807683152 23.063054063222406 L-41.89838246384541 30.326902059055147 L-49.16223045967811 16.070797672041312 L-34.90612607266423 8.806949676208571 A36 36 0 0 1 -35.91919577858087 2.4106792860059967 L-35.91919577858087 2.4106792860059967 L-51.72220922810307 -0.09227215463770522 L-49.21925778745937 -15.895285604159849 L-33.41624433793717 -13.392334163516146 A36 36 0 0 1 -30.47620154147407 -19.162493042489373 M0 -17A17 17 0 1 0 0 17 A17 17 0 1 0 0 -17" fill="#f7931a"></path></g></g></g>
</svg>